<svg xmlns="http://www.w3.org/2000/svg" width="24" height="24" viewBox="0 0 24 24">
  <g id="vuesax_bold_personalcard" data-name="vuesax/bold/personalcard" transform="translate(-172 -252)">
    <g id="personalcard">
      <path id="Vector" d="M16,0H4A3.986,3.986,0,0,0,0,3.97V14.03A3.986,3.986,0,0,0,4,18H16a3.986,3.986,0,0,0,4-3.97V3.97A3.986,3.986,0,0,0,16,0ZM6.5,4.17A2.31,2.31,0,1,1,4.19,6.48,2.317,2.317,0,0,1,6.5,4.17Zm3.87,9.49a.506.506,0,0,1-.37.16H3a.506.506,0,0,1-.37-.16.52.52,0,0,1-.13-.38,3.548,3.548,0,0,1,3.19-3.17,8.659,8.659,0,0,1,1.61,0,3.539,3.539,0,0,1,3.19,3.17A.475.475,0,0,1,10.37,13.66Zm6.63.09H15a.75.75,0,0,1,0-1.5h2a.75.75,0,0,1,0,1.5Zm0-4H13a.75.75,0,0,1,0-1.5h4a.75.75,0,0,1,0,1.5Zm0-4H12a.75.75,0,0,1,0-1.5h5a.75.75,0,0,1,0,1.5Z" transform="translate(174 255)" fill="#fff"/>
      <path id="Vector-2" data-name="Vector" d="M0,0H24V24H0Z" transform="translate(196 276) rotate(180)" fill="none" opacity="0"/>
    </g>
  </g>
</svg>
