<svg xmlns="http://www.w3.org/2000/svg" width="24" height="24" viewBox="0 0 24 24">
  <g id="vuesax_bold_arrow-2" data-name="vuesax/bold/arrow-2" transform="translate(-236 -188)">
    <g id="arrow-2">
      <path id="Vector" d="M0,0H24V24H0Z" transform="translate(236 188)" fill="none" opacity="0"/>
      <path id="Vector-2" data-name="Vector" d="M19.5,4.468a.749.749,0,0,0-.22-.53L15.56.218a.75.75,0,0,0-1.06,1.06l2.45,2.45H.75a.755.755,0,0,0-.75.75.747.747,0,0,0,.75.74H16.94L14.5,7.658a.754.754,0,0,0,0,1.06.748.748,0,0,0,1.06,0l3.71-3.71a.782.782,0,0,0,.17-.26.037.037,0,0,1,.01-.03A.7.7,0,0,0,19.5,4.468Z" transform="translate(238.25 190.262)" fill="#fff"/>
      <path id="Vector-3" data-name="Vector" d="M18.75,3.717H2.56L5,1.277A.75.75,0,0,0,3.94.218L.23,3.927a.782.782,0,0,0-.17.26.037.037,0,0,1-.01.03.733.733,0,0,0,.17.79l3.72,3.72a.748.748,0,0,0,1.06,0,.754.754,0,0,0,0-1.06L2.55,5.218h16.2a.75.75,0,0,0,0-1.5Z" transform="translate(238.25 200.803)" fill="#fff"/>
    </g>
  </g>
</svg>
