<svg xmlns="http://www.w3.org/2000/svg" width="24" height="24" viewBox="0 0 24 24">
  <g id="vuesax_bold_money" data-name="vuesax/bold/money" transform="translate(-172 -252)">
    <g id="money">
      <path id="Vector" d="M0,0H24V24H0Z" transform="translate(172 252)" fill="none" opacity="0"/>
      <path id="Vector-2" data-name="Vector" d="M15,0H5C2,0,0,1.5,0,5v7c0,3.5,2,5,5,5H15c3,0,5-1.5,5-5V5C20,1.5,18,0,15,0ZM4.25,11a.75.75,0,0,1-1.5,0V6a.75.75,0,0,1,1.5,0Zm5.75.5a3,3,0,1,1,3-3A3,3,0,0,1,10,11.5Zm7.25-.5a.75.75,0,0,1-1.5,0V6a.75.75,0,0,1,1.5,0Z" transform="translate(174 255.5)" fill="#fff"/>
    </g>
  </g>
</svg>
