<svg xmlns="http://www.w3.org/2000/svg" width="24" height="24" viewBox="0 0 24 24">
  <g id="vuesax_bold_shuffle" data-name="vuesax/bold/shuffle" transform="translate(-108 -572)">
    <g id="shuffle">
      <path id="Vector" d="M0,0H24V24H0Z" transform="translate(108 572)" fill="none" opacity="0"/>
      <path id="Vector-2" data-name="Vector" d="M9.532,3.352c0-.02-.01-.04-.01-.06a.856.856,0,0,0-.05-.23.913.913,0,0,0-.15-.23.01.01,0,0,0-.01-.01.776.776,0,0,0-.24-.16.717.717,0,0,0-.29-.06l-4.67.02H4.1a1.932,1.932,0,0,1-1.54-.76L1.342.292A.738.738,0,0,0,.292.162a.739.739,0,0,0-.13,1.05l1.22,1.57a3.473,3.473,0,0,0,2.73,1.34h.01l2.85-.01-.71.71a.754.754,0,0,0,0,1.06.748.748,0,0,0,1.06,0l2-2a.776.776,0,0,0,.16-.24A1.04,1.04,0,0,0,9.532,3.352Z" transform="translate(120.218 586.628)" fill="#fff"/>
      <path id="Vector-3" data-name="Vector" d="M6.17,1.43A3.449,3.449,0,0,0,3.37,0H3.35L.75.01A.755.755,0,0,0,0,.76a.755.755,0,0,0,.75.75L3.36,1.5h.01a1.929,1.929,0,0,1,1.58.81l1.08,1.5a.767.767,0,0,0,.61.31.791.791,0,0,0,.44-.14.754.754,0,0,0,.17-1.05Z" transform="translate(110.25 577.26)" fill="#fff"/>
      <path id="Vector-4" data-name="Vector" d="M19.49,2.8a.433.433,0,0,1,.01-.05.717.717,0,0,0-.06-.29.776.776,0,0,0-.16-.24l-2-2a.75.75,0,0,0-1.06,1.06l.71.71-2.73-.01h-.02a3.432,3.432,0,0,0-2.87,1.54L4.92,13.1a1.954,1.954,0,0,1-1.62.87H3.29l-2.54-.02a.75.75,0,0,0,0,1.5l2.55.01h.02a3.419,3.419,0,0,0,2.87-1.54l6.39-9.58a1.954,1.954,0,0,1,1.62-.87h.01l4.54.02a.753.753,0,0,0,.29-.06.776.776,0,0,0,.24-.16.01.01,0,0,1,.01-.01.7.7,0,0,0,.15-.23A.856.856,0,0,0,19.49,2.8Z" transform="translate(110.25 575.282)" fill="#fff"/>
    </g>
  </g>
</svg>
