<svg xmlns="http://www.w3.org/2000/svg" width="24" height="24" viewBox="0 0 24 24">
  <g id="vuesax_bold_cloud" data-name="vuesax/bold/cloud" transform="translate(-236 -188)">
    <g id="cloud">
      <path id="Vector" d="M19.74,9.128a5.6,5.6,0,0,0-1.26-2.22,5.259,5.259,0,0,0-2.79-1.65A6.335,6.335,0,0,0,11.41.288a6.878,6.878,0,0,0-6.87,1.79,6.317,6.317,0,0,0-1.43,6.11,4.053,4.053,0,0,0-3.1,3.75c-.01.11-.01.21-.01.31a4.1,4.1,0,0,0,3.97,4.19H14.35a5.66,5.66,0,0,0,3.82-1.48A5.505,5.505,0,0,0,19.74,9.128Z" transform="translate(238 191.782)" fill="#fff"/>
      <path id="Vector-2" data-name="Vector" d="M0,0H24V24H0Z" transform="translate(260 212) rotate(180)" fill="none" opacity="0"/>
    </g>
  </g>
</svg>
