<?xml version="1.0" encoding="utf-8"?>
<!-- Generator: Adobe Illustrator 24.3.0, SVG Export Plug-In . SVG Version: 6.00 Build 0)  -->
<svg version="1.1" id="Layer_1" xmlns="http://www.w3.org/2000/svg" xmlns:xlink="http://www.w3.org/1999/xlink" x="0px" y="0px"
	 viewBox="0 0 708.7 300.5" style="enable-background:new 0 0 708.7 300.5;" xml:space="preserve">
<style type="text/css">
	.st0{fill:#727272;}
	.st1{fill-rule:evenodd;clip-rule:evenodd;fill:#727272;}
</style>
<g>
	<path class="st0" d="M635.3,155.9L635.3,155.9L635.3,155.9c2.3,0,4.3,0.9,5.8,2.4s2.4,3.5,2.4,5.8l0,0l0,0l0,0l0,0
		c0,2.3-0.9,4.3-2.4,5.8s-3.5,2.4-5.8,2.4l0,0l0,0l0,0l0,0c-2.3,0-4.3-0.9-5.8-2.4s-2.4-3.5-2.4-5.8l0,0l0,0l0,0l0,0
		c0-2.3,0.9-4.3,2.4-5.8C631,156.8,633,155.9,635.3,155.9L635.3,155.9L635.3,155.9L635.3,155.9z M635.3,157.3L635.3,157.3
		L635.3,157.3L635.3,157.3L635.3,157.3c-1.9,0-3.6,0.8-4.8,2s-2,2.9-2,4.8l0,0l0,0l0,0l0,0c0,1.9,0.8,3.6,2,4.8s2.9,2,4.8,2l0,0l0,0
		l0,0l0,0c1.9,0,3.6-0.8,4.8-2s2-2.9,2-4.8l0,0l0,0l0,0l0,0c0-1.9-0.8-3.6-2-4.8C638.9,158,637.2,157.3,635.3,157.3z"/>
	<polygon class="st1" points="65.4,121.6 71.4,121.6 80.9,121.6 127.9,121.6 127.9,134.3 80.9,134.3 80.9,162.6 126.7,162.5 
		126.7,174.9 80.9,174.9 80.9,212.7 128.3,212.7 128.3,225.5 81,225.6 73,225.6 65.4,225.6 	"/>
	<path class="st1" d="M176.9,158.9c14.9,0,26.6,6.8,26.5,26.1c0,0.2,0,0.5,0,0.7l0,0v40H189v-40h0.1c0.4-10.8-5.8-15.5-16-15.5
		c-15.6,0-16.6,13.3-17.4,15.5v40h-14.3v-64.1h14.3v6.8C160.8,162.7,168.5,158.9,176.9,158.9L176.9,158.9z"/>
	<path class="st1" d="M432.4,158.7c14.9,0,26.6,6.8,26.5,26.1c0,0.2,0,0.5,0,0.7l0,0v40h-14.5v-40h0.1c0.4-10.8-5.8-15.5-16-15.5
		c-15.6,0-16.6,13.3-17.4,15.5v40h-14.3v-64.1h14.3v6.8C416.3,162.4,424,158.7,432.4,158.7L432.4,158.7z"/>
	<path class="st1" d="M271.9,170.6h29.9c0-0.1,0-0.1,0-0.2h13.9c0,0.1,0,0.1,0,0.2c-1.2,36.7-23.7,55.4-52.3,55.5
		c-28.6,0-52-24.3-52-54c0-29.8,21.7-53.3,51.9-54.1c19.3-0.5,35.8,6.1,44.9,20.6l-9.9,8.4c-6.2-11.8-19.4-17.6-35-16.3
		c-23.5,1.8-38.3,18.3-38.3,40.8c0,22.4,17.2,40.7,38.4,40.7c17.6,0,31.5-8.4,36.5-28.9h-28.1v-12.7H271.9z"/>
	<path class="st1" d="M336,183.8h39.3c-2.5-10.6-9.1-15.4-18.7-15.4C347,168.4,338.9,174.9,336,183.8L336,183.8z M388.6,193.7v0.3
		h-53.5c1.4,11,10.1,19.6,21,19.6c8.6,0,18.2-4.8,21.3-12.5l12.5,6.5c-4.5,11.8-20.5,18.6-34.9,18.6c-19.4,0-34.5-15.9-34.5-34.8
		c0-19,13.8-34.7,35-34.3c21.3,0.4,35.3,12.6,34.3,36.4v0.1L388.6,193.7L388.6,193.7z"/>
	<polygon class="st1" points="475.7,161.1 491.2,161 491.3,225.5 475.7,225.5 	"/>
	<path class="st1" d="M483.4,134.2c4.2,0,7.6,3.4,7.6,7.6c0,4.2-3.4,7.6-7.6,7.6s-7.6-3.4-7.6-7.6
		C475.8,137.6,479.2,134.2,483.4,134.2L483.4,134.2z"/>
	<path class="st1" d="M568.5,195.6c1.2,21-11,30-30.6,30c-20.7,0-29.2-10.4-30.7-24.6l-0.3-5l0,0l0,0v-35.6h14.7v9l0.1,26.3v5.6
		c0,5.5,6.8,12.8,16.9,12.8c11.3,0,15.1-9.5,15.1-14v-7.5v-22.9v-10.2h14.7L568.5,195.6L568.5,195.6z"/>
	<path class="st1" d="M603.1,156.9c9.2,0,17.1,4.9,20.4,11.8l-12.3,5.8c-1-3.2-4.2-5.6-7.7-5.8c-4.2-0.3-8.1,2.8-8.1,6.8
		c0,3.2,5.1,6,8.6,7c2.1,0.8,9.6,3.8,14.6,6.4c0,0-0.1,0-0.1,0.1c6.5,3.1,10.9,8.7,10.4,16.7c-1.6,12.1-11.7,20.1-25.7,20.1
		c-11.7,0-21.6-6.3-24.5-14.8l13.1-5.4l0,0c1.1,3.9,4.9,7.1,9.4,8c5.6,1.2,11-0.1,12.4-7.2c2-7.2-7.7-7.4-13.3-11.4
		c-4.7-1.4-11.3-5.7-11.3-5.7c-6-3.3-7.5-8-7.5-13.4C581.4,165.3,591,156.9,603.1,156.9z"/>
	<path class="st1" d="M483.4,80.2c19.2,0,37.6,8.7,49.5,22.5l-3.5,3.3c-11.2-12.8-28.4-21.1-46-21.1c-18.3,0-36,8.3-46.9,21.6
		l-3.8-2.9C444.7,89.3,463.8,80.2,483.4,80.2L483.4,80.2z M483.4,113.1c9.5,0,17.9,5.1,22.4,12.8l-3.4,3l-0.2,0.1
		c-3.6-6.7-10.7-11.2-18.8-11.2c-8.3,0-15.5,4.7-19,11.7l-3.7-3C465.1,118.5,473.6,113.1,483.4,113.1L483.4,113.1z M483.4,96.8
		c-14.6,0-28.2,7.2-36.4,18.4l3.5,2.8c7.3-10,19.7-16.5,32.9-16.5c12.9,0,24.7,6.5,31.9,16.4l3.7-3.2
		C510.8,103.8,497.6,96.8,483.4,96.8z"/>
	<path class="st0" d="M631.7,168.8v-9.5h4c0.8,0,1.4,0.1,1.8,0.3c0.4,0.2,0.7,0.5,1,0.9s0.4,0.9,0.4,1.4c0,0.7-0.2,1.3-0.6,1.7
		c-0.4,0.5-1,0.8-1.9,0.9c0.3,0.2,0.5,0.3,0.7,0.5c0.3,0.3,0.7,0.8,1,1.3l1.5,2.6h-1.5l-1.2-2c-0.3-0.6-0.6-1-0.9-1.3
		c-0.2-0.3-0.4-0.5-0.6-0.6c-0.2-0.1-0.3-0.2-0.5-0.3c-0.1,0-0.4,0-0.7,0h-1.4v4.2L631.7,168.8L631.7,168.8z M632.9,163.5h2.5
		c0.5,0,1-0.1,1.3-0.2c0.3-0.1,0.5-0.3,0.7-0.6s0.2-0.5,0.2-0.9s-0.1-0.8-0.5-1.1c-0.3-0.3-0.8-0.4-1.5-0.4h-2.8L632.9,163.5
		L632.9,163.5z"/>
</g>
</svg>
